<svg class="kletka" version="1.1" id="Layer_1" xmlns="http://www.w3.org/2000/svg" xmlns:xlink="http://www.w3.org/1999/xlink" x="0px" y="0px"
	 viewBox="0 0 169.2 189.8" style="enable-background:new 0 0 169.2 189.8;" xml:space="preserve">
<style type="text/css">
	.st0{fill:none;stroke:#000000;stroke-miterlimit:10;}
</style>
<path class="st0" d="M45.3,71.7C56.8,69.2,66,60.4,68.7,49c0.1-0.5,0.2-0.9,0.3-1.4c3.3-17.2,14.3-32.8,31.4-37
	c13.4-3.4,40.3-2.2,39.9,20.9s-0.8,24.8,8.9,34.8c3.4,3.5,5.2,7.7,6.1,11.6c2.2,9.5-1.3,19.7-9.5,25.1c-3,2-6.7,3.4-11.2,3.2
	c-5.4-0.1-10.7,2.7-15.3,6.4c-9.2,7.3-15.2,17.9-17.3,29.5c-0.6,3.4-0.6,7.3-1.3,11.2c-3.4,20.7-14.5,34.1-25,29.7
	c-10.8-4.5-16.9-36.1-16.9-36.1s-0.5-8.2-16.1-19s-32.2-19-32.2-34.9C10.5,81.2,32.8,74.4,45.3,71.7z"/>
</svg>
